# xmcd
#
# Track frame offsets: 
#        150
#        14368
#        30950
#        52024
#        66787
#        86310
#        111918
#        126517
#        147570
#        163636
#        174208
#
# Disc length: 2578 seconds
#
# Revision: 0
# Processed by: cddbd v1.5.2PL0 Copyright (c) Steve Scherf et al.
# Submitted via: ExactAudioCopy v1.0b1
#
DISCID=8f0a100b
DTITLE=The Bihlman Bros. - What U Want
DYEAR=2010
DGENRE=
TTITLE0=I Wanna Fly
TTITLE1=Believe
TTITLE2=Jubilee
TTITLE3=What U Want
TTITLE4=Better Place
TTITLE5=Angel's Wings
TTITLE6=Needle and Thread
TTITLE7=Butterfly
TTITLE8=Walk Outside
TTITLE9=Shotgun
TTITLE10=Broken Wings
EXTD=
EXTT0=
EXTT1=
EXTT2=
EXTT3=
EXTT4=
EXTT5=
EXTT6=
EXTT7=
EXTT8=
EXTT9=
EXTT10=
PLAYORDER=
